<?xml version="1.0" standalone="no"?>
<!DOCTYPE svg PUBLIC "-//W3C//DTD SVG 1.1//EN" "http://www.w3.org/Graphics/SVG/1.1/DTD/svg11.dtd">
<svg xmlns="http://www.w3.org/2000/svg">
<metadata>Copyright (C) 2014 by original authors @ fontello.com</metadata>
<defs>
<font id="fontello" horiz-adv-x="1000" >
<font-face font-family="fontello" font-weight="400" font-stretch="normal" units-per-em="1000" ascent="850" descent="-150" />
<missing-glyph horiz-adv-x="1000" />
<glyph glyph-name="1" unicode="&#xe83a;" d="m377-35h66l442 710-74 47-429-551-214 182-40-60 249-328z" horiz-adv-x="1000" />
<glyph glyph-name="68" unicode="&#xe843;" d="m861 139l4 284c1 19-15 36-35 36 0 0 0 0 0 0-20 0-36-16-36-35l-3-213h-469l-87 487h-133c-20 0-36-16-36-36s16-35 36-35h73l88-488h598z m-549-8c39 0 71-32 71-71 0-39-32-70-71-70-39 0-70 31-70 70 0 39 31 71 70 71z m492 0c39 0 71-32 71-71 0-39-32-70-71-70s-70 31-70 70c0 39 31 71 70 71z" horiz-adv-x="1000" />
<glyph glyph-name="3" unicode="&#xe800;" d="m261 312l28 35 4 7c2 6 5 17 7 32 3 15 5 32 5 50-1 26-14 45-37 58l-35 7-17-2c-12-1-24-7-36-17-12-11-18-26-18-46 0-17 1-33 3-49l13-40 8-12c6-8 14-16 23-25 9-9 17-13 24-13l0 0 0 0 0 0c8 0 18 5 28 15l0 0z m241-69c16 0 36 13 59 40l37 52 7 14c4 9 9 28 14 55 4 27 7 58 7 93-2 55-28 92-79 110l-45 9-32-4c-20-1-41-11-62-31-21-20-32-48-32-84 0-44 4-82 13-115l15-47 0 0 0 0 0 0c36-60 69-91 98-92l0 0z m303 69l28 35 4 7c2 6 5 17 8 32 2 15 4 32 4 50-1 26-13 45-37 58l-35 7-17-2c-12-1-24-7-36-17-12-11-18-26-18-46 0-17 1-33 3-49l13-40 8-12c6-8 14-16 23-25 9-9 17-13 24-13l0 0 0 0 0 0c9 0 18 5 28 15l0 0z m-28-47c-15 2-27 8-38 20-23-3-44-7-63-14 63-19 111-51 143-96h121l1 24c0 16-10 34-30 52-21 18-52 29-95 34-10-12-22-18-39-20l0 0z m-505 20c-10-12-22-18-39-20-15 2-28 8-38 20-1 0-2 0-4 0-68-9-108-35-118-79l-2-31h120c32 45 80 77 143 96l0 0c-17 7-38 11-62 14l0 0z m233-56c-28 1-51 12-69 33-13-1-26-3-39-5-116-19-179-67-190-145v-40h595c3 14 3 30 0 49-16 81-93 128-229 141l0 0c-17-21-40-32-68-33l0 0z" horiz-adv-x="1000" />
<glyph glyph-name="4" unicode="&#xe801;" d="m661 673v63h-310v-63h-185v-137h61l42-525c0-6 1-13 4-20 8-26 26-40 54-40h359c6 0 12 2 19 4 26 9 38 28 38 56l42 525h61v137h-185z m-186-641h-40l-21 504h61v-504z m122 504l-25-504h-36v504h61z m-244 0l21-504h-32l-35 504h46z m282-504l25 504h45l-35-504h-35z" horiz-adv-x="1000" />
<glyph glyph-name="5" unicode="&#xe802;" d="m282 639c-61-88-50-210 33-364 60-109 124-188 192-238 64-45 121-60 169-45 49 19 75 28 77 30 18 8 21 22 11 41-49 90-74 135-74 137l-7 5c-4 3-10 6-16 8-7 3-13 3-20 0-51-22-78-33-79-33l-7-3c-25-3-65 45-118 143-40 75-52 124-37 146l12 7 75 32c17 10 21 22 14 35l-78 144-5 6c-3 4-7 8-14 10-6 2-14 2-23-2-49-18-74-28-75-28l0 0 0 0 0 0c-11-7-20-17-30-31l0 0z" horiz-adv-x="1000" />
<glyph glyph-name="6" unicode="&#xe803;" d="m79 510h854v143h-854v-143z m0-238h854v143h-854v-143z m0-237h854v143h-854v-143z" horiz-adv-x="1000" />
<glyph glyph-name="7" unicode="&#xe804;" d="m206 602l300-293 300 293h-600z m612-474l-200 195-107-105-111 110-206-200 166 239-201 197h-7v-478h708v474l-204-199 162-233z" horiz-adv-x="1000" />
<glyph glyph-name="8" unicode="&#xe805;" d="m539 434l165-13c-24-31-55-67-94-108-147-147-310-262-486-343-1-4-1-6 2-7 55 8 121 29 197 63 50 22 109 56 177 103 24 16 51 37 82 64 22 20 47 44 75 73 34 35 67 76 98 122l98-118 36 455-350-291z" horiz-adv-x="1000" />
<glyph glyph-name="9" unicode="&#xe806;" d="m527 600l-21-35-3 11c-4 7-10 15-18 24-8 10-18 19-29 28-12 9-27 18-47 25-19 6-40 10-63 10-43 0-82-12-115-35-57-38-86-94-86-166 0-69 30-139 89-209 46-52 136-128 272-228 84 60 146 107 185 141 117 102 176 201 176 296 0 36-9 71-26 103-37 65-95 98-174 98l0 0c-58-1-105-22-140-63l0 0z" horiz-adv-x="1000" />
<glyph glyph-name="10" unicode="&#xe807;" d="m578 448c8-16 21-26 40-29l160-25-115-115c-13-14-18-30-16-49l28-163-144 76c-9 5-17 7-25 7-7 0-15-2-24-7l-145-76 28 163c2 18-3 34-16 49l-115 115 161 25c17 2 30 12 40 29l71 150 72-150z m-192 25l-269-40 196-194-47-274 240 129 241-129-47 274 195 194-268 40-121 249-120-249z" horiz-adv-x="1000" />
<glyph glyph-name="11" unicode="&#xe808;" d="m801 560c32 20 56 49 70 87-31-17-64-30-101-38-32 32-70 49-116 51-29 0-57-9-83-25-50-31-75-76-75-134 0-12 2-24 5-37-7 0-15 1-23 2-124 13-226 67-305 164-13-25-20-51-21-80 1-56 25-100 72-133-25 0-49 7-74 21v-2c0-21 5-42 13-62 22-53 60-84 115-95-14-3-28-5-42-5-13 0-23 1-30 2 4-9 8-19 14-30 29-52 74-79 135-80-59-44-124-67-197-68-16 0-28 1-37 2 73-47 154-71 242-72 135 1 246 50 333 145 78 89 117 192 117 309v21c30 22 57 49 79 82-29-13-60-21-91-25l0 0z" horiz-adv-x="1000" />
<glyph glyph-name="12" unicode="&#xe809;" d="m402 429v115l48 161h-41l-27-110h-3l-28 110h-42l51-166v-110h42z m157 51v105c0 3-1 7-2 12-5 26-22 40-53 40-34-1-53-18-55-51v-104c0-4 0-8 1-13 5-30 23-45 53-45 35 1 53 20 56 56l0 0z m-39 108v-112c-1-9-7-15-17-17-8 1-14 7-16 17v112c1 7 6 12 16 14 10-1 16-6 17-14l0 0z m140-159h38v203h-38v-154c-10-9-17-14-21-16-6 2-10 6-11 14v156h-38v-170c1-20 10-32 26-34 14 1 29 9 44 24v-23z m33-239h33v21c0 13-5 21-16 23-9-1-15-9-17-23v-21z m-138-90c6-5 12-8 19-9 6 1 10 8 12 19v105c-1 11-6 18-15 21-4-1-9-4-16-9v-127z m249 246c-16 35-43 52-82 52-44 2-112 3-205 3h-21c-92 0-161-1-206-3-13 0-25-3-37-9-36-16-54-43-54-80-2-26-3-65-3-117 0-51 1-90 3-117 0-11 3-23 9-36 16-34 44-51 82-51 67-3 136-5 206-5h10 11c68 0 137 2 205 5 13 0 25 2 37 7 36 16 54 43 54 80 2 26 4 65 4 117 0 51-2 90-4 117 0 13-3 25-9 37l0 0z m-516-285v236h-43v40h129v-40h-44v-236h-42z m86 33v171h36v-155c0-7 4-11 11-14 6 1 13 6 22 14v155h39v-204h-39v23c-14-15-28-23-43-24-15 1-24 12-26 34l0 0z m181-17v-16h-37v276h37v-89c11 12 22 18 35 19 22-1 34-18 37-50v-114c-2-27-13-41-35-43-14 0-26 5-37 17l0 0z m171 44v14h40v-16c-1-40-20-61-57-63-33 2-51 23-55 63v91c0 4 1 9 2 14 6 31 25 47 56 47 34-2 52-22 54-61v-51h-73v-38c0-17 6-26 17-28 7 1 12 10 16 28l0 0z" horiz-adv-x="1000" />
<glyph glyph-name="13" unicode="&#xe80a;" d="m232 709c-14 0-26-3-38-9-35-15-52-42-52-81v-550c0-13 3-25 8-38 16-35 43-53 82-53h548c13 0 26 3 38 9 35 15 53 43 53 82v550c0 12-3 25-9 38-15 35-42 52-82 52h-548z m325-275c38-20 57-52 57-95 0-16-4-32-12-48-20-38-50-56-92-56-17 0-33 4-49 12-37 20-56 51-56 93 0 16 4 31 12 47 19 39 50 59 93 59 16 0 32-4 47-12l0 0z m80 167c1 8 6 13 16 16h113c7-1 12-7 14-16v-113c-1-7-6-12-14-14h-113c-8 1-14 6-16 14v113z m-405-547c-10 1-16 6-17 15v325h124c-6-19-9-37-9-55 0-34 9-66 28-95 35-55 85-82 152-82 35 0 67 9 97 28 55 34 82 84 82 149 0 17-3 35-8 55h116v-325c-2-9-8-14-17-15h-548z" horiz-adv-x="1000" />
<glyph glyph-name="14" unicode="&#xe80b;" d="m269 619c-84-73-125-165-125-275 0-90 29-169 87-237 73-84 165-126 275-126 90 0 169 29 237 87 84 74 126 165 126 276 0 89-29 168-87 237-73 84-165 126-276 126-89 0-168-29-237-88l0 0z m309-24c6-60 3-94-7-99-53-16-79-24-80-25l-88-49c-14-10-26-26-38-48-5-10-7-49-7-117 0-3 1-6 2-9 4-12 29-26 75-44 21-8 35-14 42-17 1-19 4-41 10-68l4-17 17 3c81 16 123 40 124 70 0 16 1 42 3 77 2 8 2 12 2 13-5 9-7 16-7 23l49 25 51 54 14 1c9-2 20-3 33-3 12 0 28 1 47 3h3c0-2 0-6 0-12 1-6 2-10 2-12 0-77-24-145-73-206-65-78-148-117-250-117-76 0-145 25-205 74-78 65-117 148-117 249 0 38 7 76 21 113 32 86 90 147 174 183-6-26 13-52 56-78l0 0 0 0 143 33z" horiz-adv-x="1000" />
<glyph glyph-name="15" unicode="&#xe80c;" d="m468 219c29-25 54-39 75-41 80-11 145 18 194 85 49 67 67 148 56 241-14 97-67 163-159 197-85 28-172 21-260-20-90-40-141-101-153-183-4-23-5-46-4-69 6-84 41-132 106-143 12 27 13 52 2 73-14 25-21 41-23 45-5 26-5 52 2 80 15 63 53 111 114 145 74 41 145 37 212-12 19-14 33-38 44-72 21-68 19-137-5-205-27-76-72-106-136-91-20 5-34 14-42 30-9 17-5 57 14 118 20 70 20 118 2 143-3 1-5 2-7 4-48 18-82 3-103-46-19-45-18-90 3-134-3-14-11-45-24-92-33-121-43-222-32-302 48 36 85 123 112 260 2-2 6-6 12-11l0 0z" horiz-adv-x="1000" />
<glyph glyph-name="16" unicode="&#xe80d;" d="m850 710l-687-385 380 5 66-352 241 732z" horiz-adv-x="1000" />
<glyph glyph-name="17" unicode="&#xe80e;" d="m447 330c-31 48-79 71-141 71-12 0-28-2-49-7 8 12 20 29 35 53 14 22 22 36 26 42 12 17 23 30 33 38l2-2c0-1 0-2 1-3 0-1 1-3 1-5 0-1 0-3 0-5 1-2 2-4 2-6 1-2 1-5 1-8 0-3 0-6 0-10 0-4 0-8 0-13 0-4 0-8-1-13 0-4-1-9-1-15 1-11 7-18 18-21 14-3 21 3 22 17 6 72-4 114-31 124-26 8-53-10-82-56-6-10-22-35-47-75-26-39-44-67-54-83-20-20-33-45-38-74h-7c-13-1-20-7-21-19 2-13 9-20 21-21h7c3-16 9-32 19-47 30-49 77-73 141-73 24 0 48 4 71 14 54 22 84 57 91 106 12 6 27 9 45 9 18 0 29-2 35-7 4-18 11-35 21-52 32-47 79-70 142-70 23 0 45 4 66 12 53 21 85 57 94 108h7c13 2 20 9 21 21-3 12-9 18-21 19h-7c-6 28-19 53-38 74-11 16-29 44-54 83-26 41-42 66-48 75-27 44-55 63-81 56-27-9-38-51-32-124 0-8 4-13 11-16 7-3 13-3 20 1 6 4 9 11 9 19 0 1 0 2 0 3-3 41-2 66 5 77 10-6 21-19 34-38 3-6 12-20 26-42 15-24 26-41 35-53-20 5-36 7-47 7-16 0-31-1-48-5-55-15-92-46-109-92-29 8-60 7-91-2-4 9-8 19-14 28l0 0z m-194-150c-40 16-61 43-61 80 0 13 3 25 9 35 19 37 53 56 103 56 17 0 34-3 51-9 41-17 62-45 62-82 0-13-3-25-10-37-20-36-54-54-103-54-17 0-34 4-51 11l0 0z m403 0c-41 16-61 43-61 80 0 13 3 25 9 35 18 37 53 56 103 56 17 0 34-3 50-9 42-17 63-45 63-82 0-13-3-25-10-37-20-36-54-54-103-54-18 0-35 4-51 11l0 0z" horiz-adv-x="1000" />
<glyph glyph-name="18" unicode="&#xe80f;" d="m562-26v370h101l12 127h-113v63c0 8 1 15 2 21 2 21 18 31 49 31h62v128h-101c-11 0-23-1-35-2-84-11-127-65-127-164v-77h-75v-127h75v-370h150z" horiz-adv-x="1000" />
<glyph glyph-name="19" unicode="&#xe810;" d="m234 635c-37-27-60-61-69-103-9-47 7-88 45-122 37-30 82-42 134-35-1-2-3-6-5-10-2-4-4-7-4-9-3-20 6-44 27-73-70-5-123-15-159-32-52-25-81-61-86-106-2-38 16-71 55-98 31-19 71-30 120-33h2 40c53 4 98 15 134 35 41 22 67 53 80 93 13 45 1 87-35 125-8 8-22 19-42 33-12 11-22 18-27 23l-2 2c-19 16-25 32-19 48 3 9 11 18 22 30l26 21c31 27 48 58 51 92 2 47-19 89-63 126 6 0 14 0 25 0 12-1 22-1 29 0 3 0 8 3 16 9 10 6 25 13 44 22h-206c-56-3-100-16-133-38l0 0z m136-2c25-15 44-40 58-76 18-49 20-89 5-119-2-5-6-10-12-16-26-24-56-31-91-21-41 14-68 51-82 110-3 17-5 32-5 47 2 54 28 82 77 86 17 1 34-3 50-11l0 0z m-5-375c15 0 24 0 26 0l16-10c3-2 9-6 17-12 13-8 22-15 27-19 26-25 40-49 41-74 0-14-3-27-8-40-24-43-77-60-159-50-36 3-67 15-94 35-30 26-40 58-28 95 8 23 29 42 63 58 22 9 55 15 99 17l0 0z m406 285v123h-40v-123h-124v-39h124v-125h40v125h124v39h-124z" horiz-adv-x="1000" />
<glyph glyph-name="20" unicode="&#xe811;" d="m784 493l0-535-555 0 0 535 195 0 0 32-226 0 0-598 617 0 0 598-227 0 0-32z m-407 109c4-4 7-4 11 0l103 100v-477h31v475l103-98c3-4 7-4 10 0l13 12c2 3 2 7 1 10l-125 120c0 1 0 1 0 2l-13 12c-3 4-6 4-10 0l-138-134c-1-2 0-6 2-10l12-12z" horiz-adv-x="1000" />
<glyph glyph-name="21" unicode="&#xe83b;" d="m815 668c51-20 74-68 69-146l-12-67c-14-39-35-83-64-130-34-55-72-108-115-159-76-91-143-142-203-153h-17c-8 0-14 0-18 1-35 10-65 47-92 112l-68 248c-12 40-24 70-37 88-11 16-22 24-33 25-2-1-5-2-9-4-13-8-30-19-50-33l-5 2c-3 2-6 5-9 7-4 2-7 5-11 9-4 3-8 7-10 10-1 2-2 5-3 9l3 9c0 1 4 5 12 12l28 24c18 16 29 27 36 33 6 6 16 15 30 27 14 13 26 22 35 30 10 8 18 14 26 20 24 15 45 23 65 25 43-2 73-30 91-86 2-8 6-29 12-63 13-81 24-141 33-179 12-48 26-76 42-86 1-1 3-2 5-3h4c15 2 38 28 69 78 27 43 43 77 49 103 1 4 2 11 2 23-1 33-19 51-52 54-7 0-18-6-34-18-9-5-15-10-19-12h-1v19c3 11 6 21 10 32 39 97 105 146 195 146l0 0 0 0 0 0c19 0 34-2 46-7l0 0z" horiz-adv-x="1000" />
<glyph glyph-name="22" unicode="&#xe83c;" d="m355 224l491 463-683-369 192-94z m33-204l87 127 197-147 178 682-429-507-33-155z" horiz-adv-x="1000" />
<glyph glyph-name="23" unicode="&#xe812;" d="m292 482h-150v-487h150v487z m-100 207c-37-8-55-32-55-71 0-8 1-17 5-26 11-34 36-51 73-51 9 0 19 2 30 5 35 11 52 34 52 72 0 4-1 10-2 15-9 40-35 60-78 60-8 0-17-2-25-4l0 0z m374-694v281c0 14 1 27 5 38 14 36 39 55 76 56 49-1 75-36 77-105v-270h152v288c0 32-4 63-12 90-25 80-79 119-163 119-60-5-110-31-149-78h-4l-7 68h-131c3-57 4-109 4-156v-331h152z" horiz-adv-x="1000" />
<glyph glyph-name="24" unicode="&#xe813;" d="m634 543h-429v-398h429v122l174-139v432l-174-139v122z" horiz-adv-x="1000" />
<glyph glyph-name="25" unicode="&#xe814;" d="m278 414c-98-92-147-205-147-339 0-42 6-82 16-122 17 64 48 122 91 175 83 101 191 157 322 169v-201l321 319-321 319v-193c-108-9-202-52-282-127l0 0z" horiz-adv-x="1000" />
<glyph glyph-name="26" unicode="&#xe815;" d="m604 380l-103 105-44-43c-4 12-11 25-19 38-34 52-82 78-146 78-33 0-64-8-93-26-53-33-80-82-80-146 0-33 9-63 26-91 33-55 81-83 145-84l211-209 241 241-25 24 176 141v278l-289-306z m-120-272l-149 135c-17-5-32-7-43-7-27 0-52 7-75 21-49 29-74 72-74 129 0 26 7 52 21 76 29 48 72 72 128 72 26 0 52-7 76-21 49-29 74-71 74-127 0-21-5-42-14-63l61-99 385 409v-207l-390-318z m-243 379c-42-21-63-55-63-101 0-19 4-36 13-53 22-41 55-62 101-62 17 0 35 4 52 14 42 21 63 54 63 101 0 17-5 35-14 52-21 41-55 61-101 61-18 0-35-4-51-12l0 0z" horiz-adv-x="1000" />
<glyph glyph-name="27" unicode="&#xe816;" d="m543 525v117c-4 21-16 33-37 37-21-4-33-16-36-37v-117c3-21 15-33 36-36 21 3 33 15 37 36l0 0z m0-479v116c-4 21-16 34-37 37-21-3-33-16-36-37v-116c3-21 15-33 36-37 21 4 33 16 37 37l0 0z m-105 427c17 14 19 30 9 47l-58 99c-14 19-30 24-50 14-19-14-23-30-14-50l59-100c7-11 18-18 32-19 8 0 15 3 22 9l0 0z m241-415c16 14 19 30 9 47l-60 99c-13 20-29 25-49 14-18-14-23-31-13-50l57-100c7-11 17-18 31-19 10 0 18 3 25 9l0 0z m-298 359c10 21 5 37-14 49l-100 59c-1 1-3 3-5 4-20 7-35 1-45-18-1-2-3-4-4-5-7-20-1-35 18-45l99-58c5-2 11-4 19-5 13 1 24 7 32 19l0 0z m415-239c10 21 6 37-14 49l-100 58c-1 1-3 2-5 3-20 7-35 1-45-17-11-20-6-36 14-49l99-59c4-3 10-4 19-4 13 1 24 8 32 19l0 0z m-434 166c-4 21-16 33-37 37h-117c-21-4-33-16-37-37 4-21 16-33 37-37h117c21 4 33 16 37 37l0 0z m479 0c-3 21-16 33-37 37h-116c-21-4-34-16-37-37 4-21 16-33 37-37h116c21 4 34 16 37 37l0 0z m-574-181l100 59c19 13 24 29 14 49-14 18-31 23-51 14l-99-58c-15-8-21-21-18-38 4-20 15-30 35-30 8 0 15 1 19 4l0 0z m415 240l100 58c18 14 23 30 14 50-14 19-31 24-51 14l-99-59c-13-9-19-22-18-38 4-20 15-30 35-30 7 0 14 2 19 5l0 0z m-293-335l58 100c1 1 2 3 3 5 7 20 2 35-17 45-20 11-36 6-49-14l-59-99c-4-7-5-16-4-26 4-20 16-30 37-30 13 1 23 8 31 19l0 0z m239 415l60 100c1 1 2 3 3 5 7 20 1 35-17 45-2 1-3 3-6 4-19 7-34 1-45-18l-57-99c-4-7-6-16-6-26 5-20 17-30 37-30 13 1 23 8 31 19l0 0z" horiz-adv-x="1000" />
<glyph glyph-name="28" unicode="&#xe817;" d="m494 703c-28-5-42-24-42-57 0-30 2-55 5-77l30-185c-9-1-19-3-28-7-70-22-104-74-104-155 0-32-2-59-6-82-9-54-37-96-83-127v-30h481v30c-14 9-26 19-37 29-35 36-52 96-52 180 0 18-2 36-7 54-17 61-60 98-127 108l31 209c2 15 4 33 4 53-2 37-20 57-54 59-4 0-7-1-11-2l0 0z" horiz-adv-x="1000" />
<glyph glyph-name="29" unicode="&#xe818;" d="m585 422v311h-157v-311h-311v-157h311v-310h157v310h310v157h-310z" horiz-adv-x="1000" />
<glyph glyph-name="30" unicode="&#xe819;" d="m825 708l-315-315-316 315-52-45 319-319-319-319 52-46 316 316 315-316 46 53-312 312 312 312-46 52z" horiz-adv-x="1000" />
<glyph glyph-name="31" unicode="&#xe81a;" d="m792 58v472h-669v-472h669z m-59 413v-354h-551v354h551z m-513-314h473v276h-473v-276z m0 414h611v-414h59v473h-670v-59z" horiz-adv-x="1000" />
<glyph glyph-name="32" unicode="&#xe81b;" d="m534 722c-115 10-214-27-296-110-65-66-102-146-110-240-9-115 27-214 110-297 66-65 146-102 240-110 115-9 214 28 297 110 65 67 102 147 110 241 9 115-28 214-110 296-66 66-147 102-241 110l0 0z m-228-444v132h401v-132h-401z" horiz-adv-x="1000" />
<glyph glyph-name="33" unicode="&#xe81c;" d="m532 728c-116 8-215-30-298-112-67-68-104-149-111-246-9-116 29-216 111-298 68-68 150-105 246-112 116-8 216 29 298 112 68 67 105 149 112 246 8 116-29 215-112 298-67 67-149 105-246 112l0 0z m103-588l-129 131-129-131-75 75 131 129-131 129 75 75 129-131 129 131 75-75-131-129 131-129-75-75z" horiz-adv-x="1000" />
<glyph glyph-name="34" unicode="&#xe81d;" d="m637 442h-262l131-196 131 196z" horiz-adv-x="1000" />
<glyph glyph-name="2" unicode="&#xe839;" d="m248 666c-9 0-19-1-29-5-34-14-51-39-51-76v-348c0-10 2-20 5-29 13-34 38-51 75-51h209v-136l135 136h172c11 0 21 2 30 6 34 12 51 37 51 74v348c0 11-3 22-7 33-13 32-38 48-74 48h-516z m51-312c-27 11-40 30-40 58 0 6 1 12 3 19 9 27 29 40 58 40 5 0 12-1 19-3 28-8 42-27 42-56 0-7-1-14-4-21-10-27-29-40-57-40-7 0-14 1-21 3l0 0z m186 0c-26 11-40 30-40 58 0 6 1 12 4 19 9 27 28 40 57 40 6 0 12-1 19-3 28-8 42-27 42-56 0-7-1-14-3-21-11-27-30-40-58-40-7 0-14 1-21 3l0 0z m187 0c-27 11-40 30-40 58 0 6 1 12 3 19 10 27 29 40 58 40 6 0 12-1 19-3 28-8 42-27 42-56 0-7-1-14-4-21-10-27-29-40-57-40-7 0-14 1-21 3l0 0z" horiz-adv-x="1000" />
<glyph glyph-name="36" unicode="&#xe81f;" d="m245 637c-88-78-131-176-131-293 0-99 33-186 99-262 78-87 176-131 293-131 99 0 186 34 262 100 87 78 131 175 131 293 0 99-34 186-100 261-78 88-175 131-293 131-99 0-186-33-261-99l0 0z m43-555c-81 68-122 155-122 262 0 81 26 154 79 218 67 81 154 122 261 122 82 0 154-26 218-79 82-67 122-154 122-261 0-81-26-154-78-218-68-81-155-122-262-122-81 0-154 26-218 78l0 0z m192 445v-157h-157v-52h157v-157h52v157h157v52h-157v157h-52z" horiz-adv-x="1000" />
<glyph glyph-name="37" unicode="&#xe820;" d="m747 607h-42v84h-397v-84h-42v84h-126v-694h733v694h-126v-84z m-522-527v109h563v-109h-563z m0 168v108h563v-108h-563z m0 167v109h563v-109h-563z" horiz-adv-x="1000" />
<glyph glyph-name="38" unicode="&#xe821;" d="m264 623c-85-73-127-166-127-279 0-91 30-171 90-241 73-85 166-127 279-127 91 0 172 30 243 89 85 73 127 166 127 279 0 90-30 171-91 240-73 85-166 128-279 128-90 0-171-30-242-89l0 0z m185-494l8-45c3-9 9-19 20-28 1-1 2-2 5-3 23-11 42-6 56 15 11 18 11 35 0 53l-20 22c12-1 24-4 35-8 43-18 68-48 75-91-36-15-76-23-122-23-44 0-85 8-122 23 8 37 30 66 65 85l0 0z m204-19c-34 54-83 80-147 80-10 0-19 0-26-1l-42 52-12-5 12-60c-50-22-82-58-97-109-14 8-28 17-41 27-79 66-118 149-118 250 0 75 24 143 73 204 65 79 149 118 251 118 78 0 147-25 208-75 78-63 117-146 117-247 0-21-3-42-7-63-19-94-70-166-152-214-5 15-11 29-19 43l0 0z m-187 307h2c-16-12-27-26-33-43-3-11-3-21-2-32 5-35 23-56 56-64 1 0 3-1 5-2 35-6 62 6 80 35l138 232-16 14-230-140z m80 181c-5 20-19 30-40 30-3 0-7 0-10-2-21-4-32-17-32-38 0-3 1-7 2-10 6-21 19-32 40-32 4 0 7 1 11 2 21 6 31 19 31 40 0 3-1 7-2 10l0 0z m246-245c-6 19-19 29-40 29-21-4-34-18-40-40 5-21 18-34 40-40 4 0 7 1 11 2 21 4 31 17 31 38 0 4-1 7-2 11l0 0z m-532 29c-3 0-7 0-10-2-21-4-31-17-31-38 0-3 0-7 1-10 6-20 19-30 40-30 21 5 35 18 40 40-4 21-18 34-40 40l0 0z" horiz-adv-x="1000" />
<glyph glyph-name="39" unicode="&#xe822;" d="m506 169c-37 2-68 17-91 46-42-5-80-12-115-21-116-35-179-100-188-196l1-48h785c5 23 4 49-3 78-27 107-127 169-299 187l0 0c-23-29-53-44-90-46l0 0z m-44 565c-29-2-58-16-86-41-29-26-43-63-43-110 0-65 6-121 19-168l19-47 20-31c14-20 32-40 55-60 22-21 42-31 60-31 24 1 54 21 89 59l45 63c26 40 38 111 38 215-1 74-40 123-118 146l-54 9 0 0 0 0 0 0-44-4z" horiz-adv-x="1000" />
<glyph glyph-name="40" unicode="&#xe823;" d="m480 726c-38-11-57-41-57-91 0-45 1-86 5-122l50-295h56l49 333c5 34 7 62 7 84 0 7-1 14-2 21-7 49-35 73-84 73-8 0-16-1-24-3l0 0z m-17-581c-38-17-56-47-56-89 0-14 3-28 10-42 18-37 47-56 89-56 15 0 29 3 42 9 38 19 58 48 58 89 0 14-3 27-9 40-17 40-48 59-91 59-15 1-29-3-43-10l0 0z" horiz-adv-x="1000" />
<glyph glyph-name="41" unicode="&#xe83d;" d="m224 679c-5 0-10-1-16-4-24-8-37-24-37-49v-565c0-4 2-10 4-15 8-25 24-37 49-37h319v223h-45v77h45v47c1 64 34 97 99 99h61v-76h-38c-14-1-24-12-30-32v-38h68l-7-77h-61v-223h154c4 0 10 1 15 4 25 8 37 24 37 48v565c0 5-1 10-3 16-9 24-25 37-49 37h-565z" horiz-adv-x="1000" />
<glyph glyph-name="42" unicode="&#xe83e;" d="m205 707v-726l603 363-603 363z" horiz-adv-x="1000" />
<glyph glyph-name="43" unicode="&#xe824;" d="m245 639c-89-78-133-177-133-295 0-99 33-186 100-262 77-88 176-132 294-132 99 0 186 33 262 99 88 78 132 176 132 295 0 100-33 187-99 261-78 89-176 133-295 133-100 0-187-33-261-99l0 0z m139-415l-89 245h47l51-151c5-14 9-30 14-47 8 29 29 95 64 198h47l-88-245h-46z m148 17l13 37c23-14 46-21 69-21 27 1 42 13 44 36-1 14-11 25-30 32-10 3-19 6-26 8-45 15-68 39-68 72 5 39 34 62 87 68 31 0 56-6 77-18l-14-33c-20 8-40 13-61 14-24 0-38-10-42-29 1-14 8-24 21-28 6-3 15-6 28-11 11-2 17-4 21-7 36-13 54-35 54-68-3-43-34-67-92-73-31 0-57 7-81 21l0 0z" horiz-adv-x="1000" />
<glyph glyph-name="44" unicode="&#xe825;" d="m281 347c0 12 1 24 4 37 11 72 50 126 115 162l-56 105c-19-11-37-23-56-39-83-68-125-157-125-265 0-12 0-25 1-36 12-104 61-186 147-246l-54-108 354 22-195 297-51-101c-55 44-83 101-84 172l0 0z m450-7c0-11-1-23-3-36-12-72-50-126-115-162l55-105c19 10 38 23 56 38 84 69 126 157 126 265 0 12-1 24-2 37-12 103-60 185-147 246l55 108-354-23 195-296 50 101c55-44 83-102 84-173l0 0z" horiz-adv-x="1000" />
<glyph glyph-name="45" unicode="&#xe826;" d="m909 455c-9 37-22 68-38 96-46-10-86 2-122 35-34 35-46 76-35 122-28 17-60 29-96 39-26-40-63-60-112-61-46 1-83 21-110 61-37-10-69-22-97-39 10-45-1-86-35-122-35-33-76-45-122-35-15-26-28-58-39-96 40-25 60-62 61-111-1-48-21-85-61-112 10-36 22-68 39-96 45 11 86-1 122-35 34-34 45-75 35-122 28-16 60-29 96-38 25 39 62 60 111 61 47-1 83-22 110-61 38 10 71 23 98 38-12 48-1 89 33 124 34 33 75 44 124 33 15 27 28 59 38 96-39 26-60 63-61 112 1 48 22 85 61 111l0 0z m-459-216c-41 22-62 57-62 105 0 18 4 37 12 54 22 42 57 63 105 63 18 0 36-4 54-12 41-23 62-57 62-105 0-19-4-37-12-54-22-42-57-63-104-63-19 0-37 4-55 12l0 0z" horiz-adv-x="1000" />
<glyph glyph-name="46" unicode="&#xe827;" d="m508 748h-2c-2-2-4-2-5-2-50 0-96-15-138-46-65-47-97-111-97-191 0-56 41-170 125-342l115-227c3 5 6 11 9 17 155 288 232 471 232 552 0 51-16 98-47 141-48 64-111 96-190 96l0 0-2 2z m-26-307c-30 10-46 32-46 64 0 8 2 16 6 25 10 30 32 45 64 45 8 0 16-2 25-5 30-11 45-32 45-65 0-8-2-16-5-24-11-30-32-46-65-46-8 0-16 2-24 6l0 0z" horiz-adv-x="1000" />
<glyph glyph-name="47" unicode="&#xe828;" d="m205 344l603-363v726l-603-363z" horiz-adv-x="1000" />
<glyph glyph-name="48" unicode="&#xe829;" d="m700 611l-143-143 73-74 143 143 92-90v256h-256l91-92z m-461-461l-92 91v-256h256l-90 92 143 143-74 73-143-143z m-92 553v-256l92 90 143-143 74 74-143 143 90 92h-256z m410-483l143-143-91-92h256v256l-92-91-143 143-73-73z" horiz-adv-x="1000" />
<glyph glyph-name="49" unicode="&#xe82a;" d="m163 687l687-687v687h-687z" horiz-adv-x="1000" />
<glyph glyph-name="50" unicode="&#xe82b;" d="m538 160c0 1 18 46 54 136 39 97 40 158 1 183-66 33-148-1-245-103l-56-66c19 24 49 45 87 62 56 25 89 22 101-8 4-12-8-48-33-108-13-30-22-52-28-67-48-117-40-189 24-216 81-33 160 3 238 106l40 65-4-2c-93-54-152-70-178-47l0 0 0 0c-10 11-11 32-1 65l0 0z m48 559c-32-14-48-39-48-75 0-9 1-19 5-29 14-34 39-51 77-51 11 0 22 3 31 7 35 13 52 37 52 73 0 12-2 24-7 35-16 32-42 47-76 47-12 0-23-2-34-7l0 0z" horiz-adv-x="1000" />
<glyph glyph-name="51" unicode="&#xe82c;" d="m639 555l-5 24c0 4-1 7-2 11-6 17-18 26-35 26h-181c-3 0-6-1-9-2-19-3-28-15-28-35l-5-24h-176c-19-4-31-15-37-35v-412c0-2 1-5 2-8 3-19 15-28 35-28h617c21 3 33 16 37 36v412c-3 20-15 31-37 35h-176z m-211-365c-49 29-73 72-73 129 0 28 7 55 22 79 29 49 72 73 129 73 28 0 54-7 79-23 49-29 73-72 73-129 0-27-8-54-23-78-29-49-72-73-129-73-28 0-54 7-78 22l0 0z" horiz-adv-x="1000" />
<glyph glyph-name="52" unicode="&#xe82d;" d="m219 675c-78-65-117-148-117-249 0-77 24-146 73-206 65-78 148-117 249-117 69 0 131 19 187 58l220-222 80 81-222 219c38 55 57 117 58 187 0 77-25 145-73 206-65 78-149 116-250 116-76 0-145-24-205-73l0 0z m387-378c-45-63-105-94-182-94-46 0-89 14-129 41-63 45-94 105-94 182 0 46 14 89 42 129 44 63 105 94 181 94 47 0 90-14 129-42 63-44 94-104 94-181 0-47-13-90-41-129l0 0z" horiz-adv-x="1000" />
<glyph glyph-name="53" unicode="&#xe82e;" d="m706 654c14 19 14 39 0 60-18 17-37 17-57 0l-338-339c-2-1-3-3-4-5-16-21-15-41 4-59l338-337c20-17 39-17 57 0 14 19 14 39 0 59l-310 311 310 310z" horiz-adv-x="1000" />
<glyph glyph-name="54" unicode="&#xe82f;" d="m506 344v-326h0c180 0 326 146 326 326h-326z m-325 0h325v325c-179 0-325-146-325-325z m325 393c-216 0-393-177-393-393 0-217 177-393 393-393 217 0 393 176 393 393 0 216-176 393-393 393z m0-750c-196 0-356 160-356 357 0 196 160 357 356 357 197 0 357-161 357-357 0-197-160-357-357-357z" horiz-adv-x="1000" />
<glyph glyph-name="55" unicode="&#xe830;" d="m751 218c-35 0-67-14-90-37l-271 148c1 8 2 15 2 23 0 6-1 12-2 18l273 135c23-22 54-36 88-36 72 0 130 60 130 134 0 74-58 134-130 134-72 0-131-60-131-134 0-9 1-17 3-25l-268-133c-23 25-57 41-93 41-72 0-131-60-131-134 0-74 59-134 131-134 35 0 66 15 90 38l271-149c-2-7-3-15-3-22 0-74 59-134 131-134 72 0 130 60 130 134s-58 133-130 133z" horiz-adv-x="1000" />
<glyph glyph-name="56" unicode="&#xe831;" d="m76 719l320-355v-395l220 75v320l321 355h-861z" horiz-adv-x="1000" />
<glyph glyph-name="57" unicode="&#xe832;" d="m344 340l162-390 162 397-122-54c0 10-1 25-3 46-1 19-3 35-4 45-5 109-15 227-29 354h-7c-7-64-15-162-25-295-6-67-10-118-12-151l-122 48z" horiz-adv-x="1000" />
<glyph glyph-name="58" unicode="&#xe833;" d="m688 368v93c0 100-81 182-182 182-100 0-182-82-182-182v-93h-35v-323h435v323h-36z m-150-225c0-18-14-32-32-32-17 0-32 14-32 32v51c0 18 15 32 32 32 18 0 32-14 32-32v-51z m-108 225v93c0 42 34 76 76 76s76-34 76-76v-93h-152z" horiz-adv-x="1000" />
<glyph glyph-name="59" unicode="&#xe834;" d="m6 719l320-355v-395l221 75v320l320 355h-861z m963-264l-221-289-110 95-20-31 128-172h34l226 372-37 25z" horiz-adv-x="1000" />
<glyph glyph-name="60" unicode="&#xe835;" d="m386 473l-269-40 196-194-47-274 240 129 241-129-47 274 195 194-268 40-121 249-120-249z" horiz-adv-x="1000" />
<glyph glyph-name="61" unicode="&#xe840;" d="m430 326v177c0 42 34 76 76 76s76-34 76-76v-93h106v93c0 101-81 182-182 182-100 0-182-81-182-182v-177h-35v-324h435v324h-294z m108-225c0-18-14-32-32-32-17 0-32 14-32 32v51c0 18 15 32 32 32 18 0 32-14 32-32v-51z" horiz-adv-x="1000" />
<glyph glyph-name="62" unicode="&#xe83f;" d="m617 344l-311-311c-14-19-14-39 0-59 19-17 38-17 58 0l338 337c1 1 2 3 3 5 17 21 16 41-3 59l-338 339c-20 17-39 17-58 0-14-20-14-40 0-60l311-310z" horiz-adv-x="1000" />
<glyph glyph-name="63" unicode="&#xe836;" d="m268 195c0-36 5-71 14-105 43 161 185 281 357 297v-174l278 276-278 276v-168c-208-19-371-191-371-402z m453-134h-560v478h203l94 66h-330c-18 0-33-15-33-33v-544c0-19 15-34 33-34h627c18 0 33 15 33 34v225l-67-66v-126z" horiz-adv-x="1000" />
<glyph glyph-name="64" unicode="&#xe837;" d="m513 707c-196 0-354-158-354-354 0-67 18-129 51-182l-64-190 196 62c50-28 109-44 171-44 195 0 354 159 354 354 0 196-159 354-354 354z m0-648c-60 0-116 18-162 48l-113-36 36 110c-35 48-56 108-56 172 0 163 132 295 295 295 162 0 294-132 294-295 0-162-132-294-294-294z m166 214c-9 5-53 28-61 32-8 3-14 5-20-4-7-9-25-29-30-35-6-5-11-6-20-1-9 5-38 15-71 47-26 25-43 56-48 65-5 9 0 14 5 18 4 4 9 10 14 16 5 5 6 8 10 14 3 6 1 11-1 16-2 5-18 50-25 68-7 19-14 16-20 16-5 0-11 1-17 1-6 1-16-1-25-10-8-9-32-30-34-74-2-45 29-89 33-95 5-6 59-102 150-142 90-40 90-28 107-27 17 1 54 20 63 41 8 21 9 39 7 43-3 3-8 6-17 11z" horiz-adv-x="1000" />
<glyph glyph-name="65" unicode="&#xe838;" d="m678 552c-11 23-35 40-63 40s-51-17-62-40h-404v-59h404c11-24 35-40 62-40s52 16 63 40h185v59h-185z m-340-139c-28 0-52-16-63-39h-126v-60h126c11-23 35-40 63-40s51 17 62 40h463v60h-463c-11 23-35 39-62 39z m456-178c-28 0-52-16-63-40h-582v-59h582c11-24 35-40 63-40 38 0 69 31 69 69s-31 70-69 70z" horiz-adv-x="1000" />
<glyph glyph-name="66" unicode="&#xe841;" d="m430 170c-37 1-68 16-91 45-42-5-80-12-115-21-116-35-179-100-188-196l2-48h784c5 23 4 49-3 78-27 107-126 169-298 187l0 0c-24-29-54-44-91-45l0 0z m-44 565c-29-3-58-17-86-42-29-26-43-62-43-110 0-65 7-121 19-168l20-47 19-31c14-20 32-40 55-60 22-21 42-31 60-31 24 1 54 21 89 60l45 62c26 40 38 111 38 215-1 74-40 123-118 146l-54 9 0 0 0 0 0 0-44-3z m808-75l-257-338-129 111-24-36 149-202h40l265 436-44 29z" horiz-adv-x="1286" />
<glyph glyph-name="67" unicode="&#xe842;" d="m424 282l177-267-320-20 49 98c-83 58-133 152-133 255 0 117 66 220 163 273l50-95c-63-35-106-102-106-178 0-62 28-119 75-157l45 91z m210 215c46-38 74-95 74-157 0-77-43-144-105-179l49-94c97 52 163 155 163 273 0 103-50 197-132 255l48 98-319-20 176-267 46 91z" horiz-adv-x="1000" />
<glyph glyph-name="35" unicode="&#xe81e;" d="m165 3h138l-138 136v-136z m673 545c18 40 11 75-21 107-8 8-18 15-29 21-40 17-75 10-107-21l-479-478 137-138 478 480c8 8 15 18 21 29l0 0z" horiz-adv-x="1000" />
</font>
</defs>
</svg>
